<?xml version="1.0" encoding="UTF-8" standalone="no"?>
<!DOCTYPE svg PUBLIC "-//W3C//DTD SVG 1.1//EN" "http://www.w3.org/Graphics/SVG/1.1/DTD/svg11.dtd">
<svg width="100%" height="100%" viewBox="0 0 108 108" version="1.1" xmlns="http://www.w3.org/2000/svg" xmlns:xlink="http://www.w3.org/1999/xlink" xml:space="preserve" xmlns:serif="http://www.serif.com/" style="fill-rule:evenodd;clip-rule:evenodd;stroke-linejoin:round;stroke-miterlimit:2;">
    <g transform="matrix(0.712509,0,0,0.712509,-0.487676,36.638098)">
        <path d="M43.317,22.492L63.004,22.492L63.004,10.367C63.004,8.201 62.869,6.774 62.598,6.086C62.39,5.565 61.952,5.117 61.286,4.742C60.39,4.242 59.442,3.992 58.442,3.992L56.942,3.992L56.942,2.836L75.067,2.836L75.067,3.992L73.567,3.992C72.567,3.992 71.619,4.232 70.723,4.711C70.056,5.044 69.603,5.55 69.364,6.227C69.124,6.904 69.004,8.284 69.004,10.367L69.004,37.711C69.004,39.857 69.14,41.274 69.411,41.961C69.619,42.482 70.046,42.93 70.692,43.305C71.608,43.805 72.567,44.055 73.567,44.055L75.067,44.055L75.067,45.211L56.942,45.211L56.942,44.055L58.442,44.055C60.171,44.055 61.431,43.544 62.223,42.524C62.744,41.857 63.004,40.253 63.004,37.711L63.004,24.805L43.317,24.805L43.317,37.711C43.317,39.857 43.452,41.274 43.723,41.961C43.931,42.482 44.369,42.93 45.036,43.305C45.931,43.805 46.879,44.055 47.879,44.055L49.411,44.055L49.411,45.211L31.254,45.211L31.254,44.055L32.754,44.055C34.504,44.055 35.775,43.544 36.567,42.524C37.067,41.857 37.317,40.253 37.317,37.711L37.317,10.367C37.317,8.201 37.181,6.774 36.911,6.086C36.702,5.565 36.275,5.117 35.629,4.742C34.713,4.242 33.754,3.992 32.754,3.992L31.254,3.992L31.254,2.836L49.411,2.836L49.411,3.992L47.879,3.992C46.879,3.992 45.931,4.232 45.036,4.711C44.39,5.044 43.942,5.55 43.692,6.227C43.442,6.904 43.317,8.284 43.317,10.367L43.317,22.492Z" style="fill:rgb(133,80,54);fill-rule:nonzero;"/>
        <path d="M75.536,2.836L87.036,2.836L112.942,34.617L112.942,10.18C112.942,7.576 112.65,5.951 112.067,5.305C111.296,4.43 110.077,3.992 108.411,3.992L106.942,3.992L106.942,2.836L121.692,2.836L121.692,3.992L120.192,3.992C118.4,3.992 117.129,4.534 116.379,5.617C115.921,6.284 115.692,7.805 115.692,10.18L115.692,45.899L114.567,45.899L86.629,11.774L86.629,37.867C86.629,40.471 86.911,42.096 87.473,42.742C88.265,43.617 89.483,44.055 91.129,44.055L92.629,44.055L92.629,45.211L77.879,45.211L77.879,44.055L79.348,44.055C81.161,44.055 82.442,43.513 83.192,42.43C83.65,41.763 83.879,40.242 83.879,37.867L83.879,8.399C82.65,6.961 81.718,6.013 81.082,5.555C80.447,5.096 79.515,4.669 78.286,4.274C77.681,4.086 76.765,3.992 75.536,3.992L75.536,2.836Z" style="fill:rgb(133,80,54);fill-rule:nonzero;"/>
    </g>
</svg>
